<svg version="1.2" xmlns="http://www.w3.org/2000/svg" viewBox="0 0 12 12" width="12" height="12">
	<title>Group 119-svg</title>
	<style>
		.s0 { fill: #ffffff } 
		.s1 { fill: #c283f3 } 
		.s2 { fill: none;stroke: #ffffff } 
		.s3 { fill: none;stroke: #c283f3 } 
		.s4 { opacity: .2;fill: #ffffff } 
	</style>
	<path id="Layer" fill-rule="evenodd" class="s0" d="m-128.4-17h-1.3v-3h-7.9v3h-1.3v-4.2h0.9q1.2-2 2-4.9 0.9-2.9 1-5.3h5.1v10.2h1.5zm-2.8-4.2v-9h-2.6q-0.1 1.9-0.9 4.5-0.8 2.7-1.9 4.5zm5.7-7.3v5.4 1.4l-0.1 0.5 4.7-7.3h1.6v8.5h-1.2v-5.2-1-1.1l-4.6 7.3h-1.6v-8.5zm10.5 3.5q2.5 0 2.5-1.3 0-1.3-2-1.3-0.6 0-1.1 0.1-0.5 0.1-1.3 0.5l-0.4-1.1q1.3-0.6 2.9-0.6 1.4 0 2.3 0.6 0.8 0.6 0.8 1.7 0 1.4-1.6 1.8v0.1q1 0.3 1.5 0.8 0.4 0.6 0.4 1.4 0 1.2-0.9 1.8-1 0.7-2.7 0.7-1.8 0-2.8-0.6v-1.2q1.4 0.7 2.9 0.7 1.1 0 1.7-0.4 0.5-0.4 0.5-1.1 0-1.5-2.4-1.5h-1.2v-1.1zm11.4 5l-0.3-1.2q-0.7 0.8-1.3 1.1-0.7 0.3-1.6 0.3-1.3 0-2-0.7-0.7-0.6-0.7-1.8 0-2.6 4.1-2.8h1.5v-0.5q0-1.1-0.5-1.5-0.4-0.5-1.3-0.5-1.1 0-2.5 0.6l-0.4-0.9q0.7-0.4 1.4-0.6 0.8-0.2 1.5-0.2 1.6 0 2.3 0.7 0.7 0.7 0.7 2.2v5.8zm-2.9-0.9q1.2 0 1.9-0.7 0.7-0.6 0.7-1.8v-0.8l-1.3 0.1q-1.5 0-2.2 0.4-0.7 0.5-0.7 1.4 0 0.7 0.4 1 0.4 0.4 1.2 0.4zm7.8-7.6v5.4l-0.1 1.4v0.5l4.7-7.3h1.6v8.5h-1.2v-5.2-1-1.1l-4.6 7.3h-1.6v-8.5zm2.4-1.2q-1.4 0-2.1-0.5-0.6-0.6-0.7-1.9h1.2q0.1 0.8 0.4 1.2 0.4 0.3 1.3 0.3 0.8 0 1.1-0.4 0.4-0.3 0.5-1.1h1.3q-0.1 1.3-0.8 1.8-0.7 0.6-2.2 0.6zm7.8 1.2v3.5h4.8v-3.5h1.3v8.5h-1.3v-3.8h-4.8v3.8h-1.3v-8.5zm-39.9 43.5h-1.3v-3h-7.9v3h-1.3v-4.2h0.9q1.2-2 2-4.9 0.9-2.9 1-5.3h5.1v10.2h1.5zm-2.8-4.2v-9h-2.6q-0.2 1.9-1 4.6-0.8 2.6-1.8 4.4zm5.7-7.3v5.4l-0.1 1.4v0.5l4.6-7.3h1.7v8.5h-1.3v-5.2l0.1-1v-1l-4.6 7.2h-1.6v-8.5zm10.5 3.5q2.5 0 2.5-1.3 0-1.3-2-1.3-0.6 0-1.1 0.1-0.5 0.1-1.3 0.5l-0.5-1.1q1.4-0.6 2.9-0.6 1.5 0 2.4 0.6 0.8 0.6 0.8 1.7 0 1.4-1.6 1.9 1 0.3 1.5 0.9 0.4 0.5 0.4 1.3 0 1.2-1 1.8-0.9 0.7-2.6 0.7-1.8 0-2.9-0.6v-1.1q1.5 0.6 2.9 0.6 1.2 0 1.7-0.4 0.6-0.3 0.6-1.1 0-1.5-2.4-1.5h-1.2v-1.1zm11.4 5l-0.3-1.2h-0.1q-0.6 0.8-1.2 1.1-0.7 0.3-1.6 0.3-1.3 0-2-0.7-0.7-0.6-0.7-1.8 0-2.6 4.1-2.7l1.5-0.1v-0.5q0-1-0.5-1.5-0.4-0.5-1.4-0.5-1 0-2.4 0.7l-0.4-1q0.6-0.4 1.4-0.6 0.8-0.2 1.5-0.2 1.5 0 2.3 0.7 0.7 0.7 0.7 2.2v5.8zm-2.9-0.9q1.2 0 1.9-0.6 0.7-0.7 0.7-1.9v-0.8l-1.3 0.1q-1.6 0-2.2 0.5-0.7 0.4-0.7 1.3 0 0.7 0.4 1.1 0.4 0.3 1.2 0.3zm7.8-7.6v5.4l-0.1 1.4v0.5l4.6-7.3h1.7v8.5h-1.3v-5.2l0.1-1v-1l-4.6 7.2h-1.6v-8.5zm2.4-1.2q-1.4 0-2.1-0.5-0.7-0.6-0.7-1.9h1.2q0 0.9 0.4 1.2 0.4 0.3 1.2 0.3 0.8 0 1.2-0.3 0.4-0.4 0.5-1.2h1.2q-0.1 1.3-0.8 1.9-0.7 0.5-2.1 0.5zm7.8 1.2v3.6h4.8v-3.6h1.3v8.5h-1.3v-3.8h-4.8v3.8h-1.3v-8.5z"/>
	<path id="Layer" fill-rule="evenodd" class="s1" d="m34.6 15h-1.3v-3h-7.9v3h-1.3v-4.2h0.9q1.2-2 2-4.9 0.9-2.9 1-5.3h5.1v10.2h1.5zm-2.8-4.2v-9h-2.6q-0.1 1.9-0.9 4.5-0.8 2.7-1.9 4.5zm5.7-7.3v5.4 1.4l-0.1 0.5 4.7-7.3h1.6v8.5h-1.2v-5.2-1-1.1l-4.6 7.3h-1.6v-8.5zm10.5 3.5q2.5 0 2.5-1.3 0-1.3-2-1.3-0.6 0-1.1 0.1-0.5 0.1-1.3 0.5l-0.4-1.1q1.3-0.6 2.9-0.6 1.4 0 2.3 0.6 0.8 0.6 0.8 1.7 0 1.4-1.6 1.8v0.1q1 0.3 1.5 0.8 0.4 0.6 0.4 1.4 0 1.2-0.9 1.8-1 0.7-2.7 0.7-1.8 0-2.8-0.6v-1.2q1.4 0.7 2.9 0.7 1.1 0 1.7-0.4 0.5-0.4 0.5-1.1 0-1.5-2.4-1.5h-1.2v-1.1zm11.4 5l-0.3-1.2q-0.7 0.8-1.3 1.1-0.7 0.3-1.6 0.3-1.3 0-2-0.7-0.7-0.6-0.7-1.8 0-2.6 4.1-2.8h1.5v-0.5q0-1.1-0.5-1.5-0.4-0.5-1.3-0.5-1.1 0-2.5 0.6l-0.4-0.9q0.7-0.4 1.4-0.6 0.8-0.2 1.5-0.2 1.6 0 2.3 0.7 0.7 0.7 0.7 2.2v5.8zm-2.9-0.9q1.2 0 1.9-0.7 0.7-0.6 0.7-1.8v-0.8l-1.3 0.1q-1.5 0-2.2 0.4-0.7 0.5-0.7 1.4 0 0.7 0.4 1 0.4 0.4 1.2 0.4zm7.8-7.6v5.4l-0.1 1.4v0.5l4.7-7.3h1.6v8.5h-1.2v-5.2-1-1.1l-4.6 7.3h-1.6v-8.5zm2.4-1.2q-1.4 0-2.1-0.5-0.6-0.6-0.7-1.9h1.2q0.1 0.8 0.4 1.2 0.4 0.3 1.3 0.3 0.8 0 1.1-0.4 0.4-0.3 0.5-1.1h1.3q-0.1 1.3-0.8 1.8-0.7 0.6-2.2 0.6zm7.8 1.2v3.5h4.8v-3.5h1.3v8.5h-1.3v-3.8h-4.8v3.8h-1.3v-8.5z"/>
	<path id="Layer" fill-rule="evenodd" class="s1" d="m34.6-18h-1.3v-3h-7.9v3h-1.3v-4.2h0.9q1.2-2 2-4.9 0.9-2.9 1-5.3h5.1v10.2h1.5zm-2.8-4.2v-9h-2.6q-0.1 1.9-0.9 4.5-0.8 2.7-1.9 4.5zm5.7-7.3v5.4 1.4l-0.1 0.5 4.7-7.3h1.6v8.5h-1.2v-5.2-1-1.1l-4.6 7.3h-1.6v-8.5zm10.5 3.5q2.5 0 2.5-1.3 0-1.3-2-1.3-0.6 0-1.1 0.1-0.5 0.1-1.3 0.5l-0.4-1.1q1.3-0.6 2.9-0.6 1.4 0 2.3 0.6 0.8 0.6 0.8 1.7 0 1.4-1.6 1.8v0.1q1 0.3 1.5 0.8 0.4 0.6 0.4 1.4 0 1.2-0.9 1.8-1 0.7-2.7 0.7-1.8 0-2.8-0.6v-1.2q1.4 0.7 2.9 0.7 1.1 0 1.7-0.4 0.5-0.4 0.5-1.1 0-1.5-2.4-1.5h-1.2v-1.1zm11.4 5l-0.3-1.2q-0.7 0.8-1.3 1.1-0.7 0.3-1.6 0.3-1.3 0-2-0.7-0.7-0.6-0.7-1.8 0-2.6 4.1-2.8h1.5v-0.5q0-1.1-0.5-1.5-0.4-0.5-1.3-0.5-1.1 0-2.5 0.6l-0.4-0.9q0.7-0.4 1.4-0.6 0.8-0.2 1.5-0.2 1.6 0 2.3 0.7 0.7 0.7 0.7 2.2v5.8zm-2.9-0.9q1.2 0 1.9-0.7 0.7-0.6 0.7-1.8v-0.8l-1.3 0.1q-1.5 0-2.2 0.4-0.7 0.5-0.7 1.4 0 0.7 0.4 1 0.4 0.4 1.2 0.4zm7.8-7.6v5.4l-0.1 1.4v0.5l4.7-7.3h1.6v8.5h-1.2v-5.2-1-1.1l-4.6 7.3h-1.6v-8.5zm2.4-1.2q-1.4 0-2.1-0.5-0.6-0.6-0.7-1.9h1.2q0.1 0.8 0.4 1.2 0.4 0.3 1.3 0.3 0.8 0 1.1-0.4 0.4-0.3 0.5-1.1h1.3q-0.1 1.3-0.8 1.8-0.7 0.6-2.2 0.6zm7.8 1.2v3.5h4.8v-3.5h1.3v8.5h-1.3v-3.8h-4.8v3.8h-1.3v-8.5z"/>
	<path id="Layer" class="s2" d="m-162.5-31.5h11v11h-11z"/>
	<path id="Layer" class="s3" d="m0.5-31.5h11v11h-11z"/>
	<path id="Layer" class="s3" d="m-162.5 0.5h11v11h-11z"/>
	<path id="Layer" class="s3" d="m0.5 0.5h11v11h-11z"/>
	<path id="Layer" class="s1" d="m6 8c-1.1 0-2-0.9-2-2 0-1.1 0.9-2 2-2 1.1 0 2 0.9 2 2 0 1.1-0.9 2-2 2z"/>
	<path id="Layer" class="s0" d="m-80.4 9h-1.8v1.8h1.8z"/>
	<path id="Layer" class="s0" d="m-78.6 9h-1.8v1.8h1.8z"/>
	<path id="Layer" class="s0" d="m-82.2 10.8h-1.7v1.7h1.7z"/>
	<path id="Layer" class="s0" d="m-76.9 10.8h-1.7v1.7h1.7z"/>
	<path id="Layer" class="s0" d="m-82.2 12.5h-1.7v1.8h1.7z"/>
	<path id="Layer" class="s0" d="m-76.9 12.5h-1.7v1.8h1.7z"/>
	<path id="Layer" class="s0" d="m-82.2 14.3h-1.7v1.8h1.7z"/>
	<path id="Layer" class="s0" d="m-76.9 14.3h-1.7v1.8h1.7z"/>
	<path id="Layer" class="s0" d="m-82.2 16.1h-1.7v1.8h1.7z"/>
	<path id="Layer" class="s0" d="m-76.9 16.1h-1.7v1.8h1.7z"/>
	<path id="Layer" class="s0" d="m-82.2 17.9h-1.7v1.7h1.7z"/>
	<path id="Layer" class="s0" d="m-76.9 17.9h-1.7v1.7h1.7z"/>
	<path id="Layer" class="s0" d="m-75.1 17.9h-1.8v1.7h1.8z"/>
	<path id="Layer" class="s0" d="m-73.4 17.9h-1.7v1.7h1.7z"/>
	<path id="Layer" class="s0" d="m-82.2 19.6h-1.7v1.8h1.7z"/>
	<path id="Layer" class="s0" d="m-76.9 19.6h-1.7v1.8h1.7z"/>
	<path id="Layer" class="s0" d="m-71.6 19.6h-1.8v1.8h1.8z"/>
	<path id="Layer" class="s0" d="m-69.8 19.6h-1.8v1.8h1.8z"/>
	<path id="Layer" class="s0" d="m-68.1 19.6h-1.7v1.8h1.7z"/>
	<path id="Layer" class="s0" d="m-82.2 21.4h-1.7v1.8h1.7z"/>
	<path id="Layer" class="s0" d="m-76.9 21.4h-1.7v1.8h1.7z"/>
	<path id="Layer" class="s0" d="m-71.6 21.4h-1.8v1.8h1.8z"/>
	<path id="Layer" class="s0" d="m-66.3 21.4h-1.8v1.8h1.8z"/>
	<path id="Layer" class="s0" d="m-64.5 21.4h-1.8v1.8h1.8z"/>
	<path id="Layer" class="s0" d="m-82.2 23.2h-1.7v1.8h1.7z"/>
	<path id="Layer" class="s0" d="m-76.9 23.2h-1.7v1.8h1.7z"/>
	<path id="Layer" class="s0" d="m-71.6 23.2h-1.8v1.8h1.8z"/>
	<path id="Layer" class="s0" d="m-66.3 23.2h-1.8v1.8h1.8z"/>
	<path id="Layer" class="s0" d="m-62.8 23.2h-1.7v1.8h1.7z"/>
	<path id="Layer" class="s0" d="m-89.2 25h-1.8v1.7h1.8z"/>
	<path id="Layer" class="s0" d="m-87.5 25h-1.7v1.7h1.7z"/>
	<path id="Layer" class="s0" d="m-85.7 25h-1.8v1.7h1.8z"/>
	<path id="Layer" class="s0" d="m-82.2 25h-1.7v1.7h1.7z"/>
	<path id="Layer" class="s0" d="m-76.9 25h-1.7v1.7h1.7z"/>
	<path id="Layer" class="s0" d="m-71.6 25h-1.8v1.7h1.8z"/>
	<path id="Layer" class="s0" d="m-71.6 26.7h-1.8v1.8h1.8z"/>
	<path id="Layer" class="s0" d="m-66.3 25h-1.8v1.7h1.8z"/>
	<path id="Layer" class="s0" d="m-61 25h-1.8v1.7h1.8z"/>
	<path id="Layer" class="s0" d="m-89.2 26.7h-1.8v1.8h1.8z"/>
	<path id="Layer" class="s0" d="m-83.9 26.7h-1.8v1.8h1.8z"/>
	<path id="Layer" class="s0" d="m-82.2 26.7h-1.7v1.8h1.7z"/>
	<path id="Layer" class="s0" d="m-66.3 26.7h-1.8v1.8h1.8z"/>
	<path id="Layer" class="s0" d="m-66.3 28.5h-1.8v1.8h1.8z"/>
	<path id="Layer" class="s0" d="m-61 26.7h-1.8v1.8h1.8z"/>
	<path id="Layer" class="s0" d="m-89.2 28.5h-1.8v1.8h1.8z"/>
	<path id="Layer" class="s0" d="m-82.2 28.5h-1.7v1.8h1.7z"/>
	<path id="Layer" class="s0" d="m-61 28.5h-1.8v1.8h1.8z"/>
	<path id="Layer" class="s0" d="m-87.5 30.3h-1.7v1.7h1.7z"/>
	<path id="Layer" class="s0" d="m-61 30.3h-1.8v1.7h1.8z"/>
	<path id="Layer" class="s0" d="m-85.7 32h-1.8v1.8h1.8z"/>
	<path id="Layer" class="s0" d="m-61 32h-1.8v1.8h1.8z"/>
	<path id="Layer" class="s0" d="m-85.7 33.8h-1.8v1.8h1.8z"/>
	<path id="Layer" class="s0" d="m-61 33.8h-1.8v1.8h1.8z"/>
	<path id="Layer" class="s0" d="m-83.9 35.6h-1.8v1.8h1.8z"/>
	<path id="Layer" class="s0" d="m-61 35.6h-1.8v1.8h1.8z"/>
	<path id="Layer" class="s0" d="m-83.9 37.4h-1.8v1.7h1.8z"/>
	<path id="Layer" class="s0" d="m-62.8 37.4h-1.7v1.7h1.7z"/>
	<path id="Layer" class="s0" d="m-82.2 39.1h-1.7v1.8h1.7z"/>
	<path id="Layer" class="s0" d="m-62.8 39.1h-1.7v1.8h1.7z"/>
	<path id="Layer" class="s0" d="m-82.2 40.9h-1.7v1.8h1.7z"/>
	<path id="Layer" class="s0" d="m-62.8 40.9h-1.7v1.8h1.7z"/>
	<path id="Layer" class="s0" d="m-80.4 42.7h-1.8v1.8h1.8z"/>
	<path id="Layer" class="s0" d="m-64.5 42.7h-1.8v1.8h1.8z"/>
	<path id="Layer" class="s0" d="m-80.4 44.5h-1.8v1.7h1.8z"/>
	<path id="Layer" class="s0" d="m-64.5 44.5h-1.8v1.7h1.8z"/>
	<path id="Layer" class="s0" d="m-80.4 46.2h-1.8v1.8h1.8z"/>
	<path id="Layer" class="s0" d="m-78.6 46.2h-1.8v1.8h1.8z"/>
	<path id="Layer" class="s0" d="m-76.9 46.2h-1.7v1.8h1.7z"/>
	<path id="Layer" class="s0" d="m-75.1 46.2h-1.8v1.8h1.8z"/>
	<path id="Layer" class="s0" d="m-73.4 46.2h-1.7v1.8h1.7z"/>
	<path id="Layer" class="s0" d="m-71.6 46.2h-1.8v1.8h1.8z"/>
	<path id="Layer" class="s0" d="m-69.8 46.2h-1.8v1.8h1.8z"/>
	<path id="Layer" class="s0" d="m-68.1 46.2h-1.7v1.8h1.7z"/>
	<path id="Layer" class="s0" d="m-66.3 46.2h-1.8v1.8h1.8z"/>
	<path id="Layer" class="s0" d="m-64.5 46.2h-1.8v1.8h1.8z"/>
	<path id="Layer" class="s0" d="m82.6 7h-1.8v1.8h1.8z"/>
	<path id="Layer" class="s0" d="m84.4 7h-1.8v1.8h1.8z"/>
	<path id="Layer" class="s0" d="m80.8 8.8h-1.7v1.7h1.7z"/>
	<path id="Layer" class="s0" d="m86.1 8.8h-1.7v1.7h1.7z"/>
	<path id="Layer" class="s0" d="m80.8 10.5h-1.7v1.8h1.7z"/>
	<path id="Layer" class="s0" d="m86.1 10.5h-1.7v1.8h1.7z"/>
	<path id="Layer" class="s0" d="m80.8 12.3h-1.7v1.8h1.7z"/>
	<path id="Layer" class="s0" d="m86.1 12.3h-1.7v1.8h1.7z"/>
	<path id="Layer" class="s0" d="m80.8 14.1h-1.7v1.8h1.7z"/>
	<path id="Layer" class="s0" d="m86.1 14.1h-1.7v1.8h1.7z"/>
	<path id="Layer" class="s0" d="m80.8 15.9h-1.7v1.7h1.7z"/>
	<path id="Layer" class="s0" d="m86.1 15.9h-1.7v1.7h1.7z"/>
	<path id="Layer" class="s0" d="m87.9 15.9h-1.8v1.7h1.8z"/>
	<path id="Layer" class="s0" d="m89.6 15.9h-1.7v1.7h1.7z"/>
	<path id="Layer" class="s0" d="m80.8 17.6h-1.7v1.8h1.7z"/>
	<path id="Layer" class="s0" d="m86.1 17.6h-1.7v1.8h1.7z"/>
	<path id="Layer" class="s0" d="m91.4 17.6h-1.8v1.8h1.8z"/>
	<path id="Layer" class="s0" d="m93.2 17.6h-1.8v1.8h1.8z"/>
	<path id="Layer" class="s0" d="m94.9 17.6h-1.7v1.8h1.7z"/>
	<path id="Layer" class="s0" d="m80.8 19.4h-1.7v1.8h1.7z"/>
	<path id="Layer" class="s0" d="m86.1 19.4h-1.7v1.8h1.7z"/>
	<path id="Layer" class="s0" d="m91.4 19.4h-1.8v1.8h1.8z"/>
	<path id="Layer" class="s0" d="m96.7 19.4h-1.8v1.8h1.8z"/>
	<path id="Layer" class="s0" d="m98.5 19.4h-1.8v1.8h1.8z"/>
	<path id="Layer" class="s0" d="m80.8 21.2h-1.7v1.8h1.7z"/>
	<path id="Layer" class="s0" d="m86.1 21.2h-1.7v1.8h1.7z"/>
	<path id="Layer" class="s0" d="m91.4 21.2h-1.8v1.8h1.8z"/>
	<path id="Layer" class="s0" d="m96.7 21.2h-1.8v1.8h1.8z"/>
	<path id="Layer" class="s0" d="m100.2 21.2h-1.7v1.8h1.7z"/>
	<path id="Layer" class="s0" d="m73.8 23h-1.8v1.7h1.8z"/>
	<path id="Layer" class="s0" d="m75.5 23h-1.7v1.7h1.7z"/>
	<path id="Layer" class="s0" d="m77.3 23h-1.8v1.7h1.8z"/>
	<path id="Layer" class="s0" d="m80.8 23h-1.7v1.7h1.7z"/>
	<path id="Layer" class="s0" d="m86.1 23h-1.7v1.7h1.7z"/>
	<path id="Layer" class="s0" d="m91.4 23h-1.8v1.7h1.8z"/>
	<path id="Layer" class="s0" d="m91.4 24.7h-1.8v1.8h1.8z"/>
	<path id="Layer" class="s0" d="m96.7 23h-1.8v1.7h1.8z"/>
	<path id="Layer" class="s0" d="m102 23h-1.8v1.7h1.8z"/>
	<path id="Layer" class="s0" d="m73.8 24.7h-1.8v1.8h1.8z"/>
	<path id="Layer" class="s0" d="m79.1 24.7h-1.8v1.8h1.8z"/>
	<path id="Layer" class="s0" d="m80.8 24.7h-1.7v1.8h1.7z"/>
	<path id="Layer" class="s0" d="m96.7 24.7h-1.8v1.8h1.8z"/>
	<path id="Layer" class="s0" d="m96.7 26.5h-1.8v1.8h1.8z"/>
	<path id="Layer" class="s0" d="m102 24.7h-1.8v1.8h1.8z"/>
	<path id="Layer" class="s0" d="m73.8 26.5h-1.8v1.8h1.8z"/>
	<path id="Layer" class="s0" d="m80.8 26.5h-1.7v1.8h1.7z"/>
	<path id="Layer" class="s0" d="m102 26.5h-1.8v1.8h1.8z"/>
	<path id="Layer" class="s0" d="m75.5 28.3h-1.7v1.7h1.7z"/>
	<path id="Layer" class="s0" d="m102 28.3h-1.8v1.7h1.8z"/>
	<path id="Layer" class="s0" d="m77.3 30h-1.8v1.8h1.8z"/>
	<path id="Layer" class="s0" d="m102 30h-1.8v1.8h1.8z"/>
	<path id="Layer" class="s0" d="m77.3 31.8h-1.8v1.8h1.8z"/>
	<path id="Layer" class="s0" d="m102 31.8h-1.8v1.8h1.8z"/>
	<path id="Layer" class="s0" d="m79.1 33.6h-1.8v1.8h1.8z"/>
	<path id="Layer" class="s0" d="m102 33.6h-1.8v1.8h1.8z"/>
	<path id="Layer" class="s0" d="m79.1 35.4h-1.8v1.7h1.8z"/>
	<path id="Layer" class="s0" d="m100.2 35.4h-1.7v1.7h1.7z"/>
	<path id="Layer" class="s0" d="m80.8 37.1h-1.7v1.8h1.7z"/>
	<path id="Layer" class="s0" d="m100.2 37.1h-1.7v1.8h1.7z"/>
	<path id="Layer" class="s0" d="m80.8 38.9h-1.7v1.8h1.7z"/>
	<path id="Layer" class="s0" d="m100.2 38.9h-1.7v1.8h1.7z"/>
	<path id="Layer" class="s0" d="m82.6 40.7h-1.8v1.8h1.8z"/>
	<path id="Layer" class="s0" d="m98.5 40.7h-1.8v1.8h1.8z"/>
	<path id="Layer" class="s0" d="m82.6 42.5h-1.8v1.7h1.8z"/>
	<path id="Layer" class="s0" d="m98.5 42.5h-1.8v1.7h1.8z"/>
	<path id="Layer" class="s0" d="m82.6 44.2h-1.8v1.8h1.8z"/>
	<path id="Layer" class="s0" d="m84.4 44.2h-1.8v1.8h1.8z"/>
	<path id="Layer" class="s0" d="m86.1 44.2h-1.7v1.8h1.7z"/>
	<path id="Layer" class="s0" d="m87.9 44.2h-1.8v1.8h1.8z"/>
	<path id="Layer" class="s0" d="m89.6 44.2h-1.7v1.8h1.7z"/>
	<path id="Layer" class="s0" d="m91.4 44.2h-1.8v1.8h1.8z"/>
	<path id="Layer" class="s0" d="m93.2 44.2h-1.8v1.8h1.8z"/>
	<path id="Layer" class="s0" d="m94.9 44.2h-1.7v1.8h1.7z"/>
	<path id="Layer" class="s0" d="m96.7 44.2h-1.8v1.8h1.8z"/>
	<path id="Layer" class="s0" d="m98.5 44.2h-1.8v1.8h1.8z"/>
	<path id="Layer" class="s4" d="m85 21c-6.1 0-11-4.9-11-11 0-6.1 4.9-11 11-11 6.1 0 11 4.9 11 11 0 6.1-4.9 11-11 11z"/>
</svg>